<svg width="512" height="512" viewBox="0 0 512 512" fill="none" xmlns="http://www.w3.org/2000/svg">
<g clip-path="url(#clip0_930_52)">
<path d="M412 0H100C44.7715 0 0 44.7715 0 100V412C0 467.228 44.7715 512 100 512H412C467.228 512 512 467.228 512 412V100C512 44.7715 467.228 0 412 0Z" fill="#0EA5E9"/>
<path d="M93 292.777V104.83C93 72.9367 118.937 47 150.83 47H179.745C186.453 47 193.161 48.5759 199.147 51.5686L244.76 74.3824C246.755 75.38 248.996 75.9004 251.222 75.9004H324.319C364.178 75.9004 396.606 108.328 396.606 148.188H237.921C199.783 148.188 165.591 173.72 154.733 210.398L116.089 345.416C101.964 332.217 93 313.581 93 292.777ZM432.649 191.82C425.724 182.524 415.17 177.189 403.618 177.001C403.401 177.001 403.228 177.117 403.011 177.117H237.921C212.505 177.117 189.706 194.133 182.492 218.494L141.751 360.799C149.167 363.372 157.003 365.064 165.287 365.064H346.844C379.026 365.064 406.842 344.361 416.269 312.916L438.417 224.494C441.8 213.188 439.69 201.29 432.649 191.82Z" fill="#F9FAFB"/>
<path d="M193.388 434.9C188.948 438.7 182.508 440.6 174.068 440.6C165.628 440.6 159.188 438.7 154.748 434.9C150.428 431.18 148.268 425.88 148.268 419V398H163.868V419C163.868 424.6 167.268 427.4 174.068 427.4C180.868 427.4 184.268 424.6 184.268 419V398H199.868V419C199.868 425.88 197.708 431.18 193.388 434.9ZM241.489 421.4H257.269C256.709 427.52 254.209 432.22 249.769 435.5C245.169 438.9 238.729 440.6 230.449 440.6C221.609 440.6 214.869 438.7 210.229 434.9C205.709 431.18 203.449 425.88 203.449 419C203.449 412.12 205.709 406.82 210.229 403.1C214.869 399.3 221.609 397.4 230.449 397.4C238.729 397.4 245.169 399.1 249.769 402.5C254.209 405.78 256.709 410.48 257.269 416.6H241.489C240.369 412.6 236.689 410.6 230.449 410.6C222.849 410.6 219.049 413.4 219.049 419C219.049 424.6 222.849 427.4 230.449 427.4C236.689 427.4 240.369 425.4 241.489 421.4ZM293.719 425C292.399 424.52 289.659 424.22 285.499 424.1C275.059 423.78 268.019 422.54 264.379 420.38C261.259 418.58 259.699 415.34 259.699 410.66C259.699 406.18 261.519 402.9 265.159 400.82C269.199 398.54 275.979 397.4 285.499 397.4C294.979 397.4 301.639 398.72 305.479 401.36C308.919 403.68 310.639 407.46 310.639 412.7H295.039C295.039 411.34 294.399 410.46 293.119 410.06C291.879 409.62 289.339 409.4 285.499 409.4C281.299 409.4 278.579 409.56 277.339 409.88C276.459 410.12 276.019 410.6 276.019 411.32C276.019 412 276.459 412.46 277.339 412.7C278.459 412.94 281.179 413.14 285.499 413.3C295.899 413.7 302.919 414.98 306.559 417.14C309.719 419.02 311.299 422.3 311.299 426.98C311.299 431.5 309.479 434.84 305.839 437C301.759 439.4 294.979 440.6 285.499 440.6C275.979 440.6 269.199 439.28 265.159 436.64C261.519 434.28 259.699 430.5 259.699 425.3H275.299C275.299 426.66 275.919 427.54 277.159 427.94C278.399 428.38 281.179 428.6 285.499 428.6C289.699 428.6 292.419 428.44 293.659 428.12C294.579 427.88 295.039 427.4 295.039 426.68C295.039 425.88 294.599 425.32 293.719 425ZM347.743 425C346.423 424.52 343.683 424.22 339.523 424.1C329.083 423.78 322.043 422.54 318.403 420.38C315.283 418.58 313.723 415.34 313.723 410.66C313.723 406.18 315.543 402.9 319.183 400.82C323.223 398.54 330.003 397.4 339.523 397.4C349.003 397.4 355.663 398.72 359.503 401.36C362.943 403.68 364.663 407.46 364.663 412.7H349.063C349.063 411.34 348.423 410.46 347.143 410.06C345.903 409.62 343.363 409.4 339.523 409.4C335.323 409.4 332.603 409.56 331.363 409.88C330.483 410.12 330.043 410.6 330.043 411.32C330.043 412 330.483 412.46 331.363 412.7C332.483 412.94 335.203 413.14 339.523 413.3C349.923 413.7 356.943 414.98 360.583 417.14C363.743 419.02 365.323 422.3 365.323 426.98C365.323 431.5 363.503 434.84 359.863 437C355.783 439.4 349.003 440.6 339.523 440.6C330.003 440.6 323.223 439.28 319.183 436.64C315.543 434.28 313.723 430.5 313.723 425.3H329.323C329.323 426.66 329.943 427.54 331.183 427.94C332.423 428.38 335.203 428.6 339.523 428.6C343.723 428.6 346.443 428.44 347.683 428.12C348.603 427.88 349.063 427.4 349.063 426.68C349.063 425.88 348.623 425.32 347.743 425Z" fill="#F9FAFB"/>
</g>
<defs>
<clipPath id="clip0_930_52">
<rect width="512" height="512" fill="white"/>
</clipPath>
</defs>
</svg>
